<svg xmlns="http://www.w3.org/2000/svg" width="34" height="21" viewBox="0 0 34 21">
  <path fill="#F1CB62" d="M30.8189664,7.10450614 C30.254551,5.82565704 29.4595835,4.67476103 28.4538519,3.68113595 C27.4004913,2.64046596 26.16996,1.82752066 24.7970017,1.26525432 C23.4263444,0.70389706 21.9742346,0.419354839 20.4813985,0.419354839 C18.9885623,0.419354839 17.5364525,0.70389706 16.1655651,1.26502705 C14.7928369,1.82729338 13.5625357,2.64001142 12.508945,3.68090868 C11.5036735,4.67430649 10.7087061,5.82497523 10.1436005,7.10382433 L10.0066958,7.2281411 L4.53234982,1.82229344 C4.17271621,1.46729748 3.59012358,1.46729748 3.23095015,1.82229344 C1.1474682,3.87999733 0,6.61564806 0,9.52538772 C0,12.4355819 1.1474682,15.1712327 3.23095015,17.2287093 C5.05373801,19.0286888 7.40228582,20.1216309 9.93467703,20.3666282 C9.99703193,20.3800371 10.0609975,20.387537 10.1272639,20.387537 C10.1406093,20.387537 10.1528041,20.3839007 10.1659194,20.3834462 C10.4523838,20.4052641 10.7404588,20.4193548 11.0306046,20.4193548 C11.0310648,20.4193548 11.0310648,20.4193548 11.0312949,20.4193548 C12.6845051,20.4193548 14.282033,20.0625407 15.7341428,19.385503 C15.8807113,19.4534567 16.0240586,19.5164106 16.1648748,19.5741372 C17.5336914,20.1350399 18.9860313,20.4193548 20.4811684,20.4193548 C21.9763054,20.4193548 23.4286453,20.1350399 24.7972318,19.5741372 C26.1694998,19.0116436 27.4000311,18.198471 28.4543121,17.1571192 C29.4609641,16.1623578 30.2559315,15.0110072 30.8198867,13.7314763 L33.7091504,11.0540067 C33.8962151,10.8810541 34.0013671,10.6392387 33.9999866,10.386287 C33.998606,10.1335626 33.8906929,9.89265628 33.7024778,9.72174913 L30.8189664,7.10450614 Z M2.02135715,11.3283218 L4.37496697,11.3283218 C4.88323993,11.3283218 5.29533449,10.921281 5.29533449,10.4192412 C5.29533449,9.91720145 4.88323993,9.51016063 4.37496697,9.51016063 L1.84096512,9.51016063 C1.8444165,7.39723009 2.57403784,5.39520739 3.91363276,3.78227117 L9.32861502,9.12948313 C9.32884511,9.1297104 9.3290752,9.13016494 9.3293053,9.13016494 L16.844106,16.5505352 L16.8470972,16.5534897 C16.7309008,16.6473522 16.6126336,16.738033 16.4927557,16.8257593 C16.4750387,16.8387137 16.4568614,16.8505318 16.4393744,16.8634862 C16.3360632,16.9380308 16.2313714,17.0105299 16.125299,17.0809837 C16.1036704,17.0950744 16.0822718,17.1084834 16.0611034,17.1223469 C15.9527301,17.1925733 15.8432064,17.2602998 15.7316118,17.3259809 C15.7168859,17.3348444 15.70193,17.3434807 15.686974,17.352117 C15.5606535,17.4255252 15.4327225,17.496888 15.3027205,17.5643873 C15.3020303,17.5648418 15.30134,17.5652964 15.3004196,17.5657509 C14.004082,18.2389251 12.5545032,18.5977846 11.0485518,18.6005119 L11.0485518,16.1009948 C11.0485518,15.5989551 10.6364573,15.1919142 10.1281843,15.1919142 C9.61991134,15.1919142 9.20781678,15.5989551 9.20781678,16.1009948 L9.20781678,18.4227866 C7.74512271,18.133699 6.38044778,17.4966608 5.21618288,16.5537169 L7.32727586,14.4714679 C7.68690947,14.1166992 7.68736965,13.5410239 7.32819623,13.1860279 C6.96879272,12.8305774 6.38620008,12.8301229 6.02656648,13.1851189 L3.91455312,15.268277 C2.95898155,14.1189719 2.3144942,12.7723963 2.02135715,11.3283218 Z M29.4450878,12.5126265 C29.3399358,12.6026255 29.2550319,12.7171696 29.1993496,12.8498954 C28.7246701,13.981928 28.0355449,14.9987346 27.1526824,15.871452 C26.2700499,16.7434875 25.2399286,17.4241616 24.0917701,17.8946108 C22.9477533,18.3634691 21.7328682,18.6005119 20.4813985,18.6005119 C19.5324995,18.6005119 18.6047691,18.463468 17.7131631,18.1939256 C17.7373227,18.175744 17.7598717,18.1552897 17.7838013,18.1368808 C17.925768,18.0280184 18.0658939,17.9148378 18.2030287,17.7984755 C18.2492771,17.7593851 18.2957557,17.7202946 18.341544,17.6802951 C18.5062898,17.5357512 18.6685045,17.3882529 18.8254272,17.233482 C18.8279582,17.2312092 18.8302591,17.2293911 18.8316397,17.2275729 C18.8923839,17.1673463 18.940013,17.0987108 18.9805091,17.025757 C19.0564394,16.8912131 19.1008472,16.7412148 19.1008472,16.584853 L19.1008472,16.584853 L19.1008472,16.584853 C19.1008472,16.5509897 19.0946347,16.5173537 19.0907231,16.483945 C19.0877319,16.4582635 19.0877319,16.4319002 19.0829,16.4066732 C19.0819796,16.402355 19.0801389,16.3987187 19.0792185,16.393946 C19.0421738,16.2241752 18.9574999,16.066677 18.8311795,15.942133 L11.3097061,8.51494466 L11.5354262,8.31040153 C11.6339055,8.22085709 11.7114465,8.11154015 11.762757,7.98949609 C12.2388171,6.85609988 12.9277122,5.83929325 13.8105747,4.96657589 C14.6925169,4.09544943 15.7224081,3.41500262 16.8705666,2.94478069 C18.0166543,2.47546784 19.2315394,2.237516 20.4813985,2.237516 C21.7312575,2.237516 22.9461427,2.47546784 24.0917701,2.94455342 C25.2403888,3.41500262 26.2700499,4.09522216 27.151762,4.96634862 C28.0348546,5.83883871 28.7237497,6.85564534 29.1995797,7.98904155 C29.2508902,8.11085834 29.3286613,8.22062982 29.4266804,8.30971972 L31.7264487,10.3976505 L29.4450878,12.5126265 Z"/>
</svg>
